<?xml version="1.0" encoding="UTF-8" standalone="no"?>
<svg width="49px" height="72px" viewBox="0 0 49 72" version="1.1" xmlns="http://www.w3.org/2000/svg" xmlns:xlink="http://www.w3.org/1999/xlink" xmlns:sketch="http://www.bohemiancoding.com/sketch/ns">
    <!-- Generator: Sketch 3.4.1 (15681) - http://www.bohemiancoding.com/sketch -->
    <title>print + Imported Layers Copy 2</title>
    <desc>Created with Sketch.</desc>
    <defs></defs>
    <g id="Page-1" stroke="none" stroke-width="1" fill="none" fill-rule="evenodd" sketch:type="MSPage">
        <g id="Artboard-24-Copy" sketch:type="MSArtboardGroup" transform="translate(-421.000000, -555.000000)">
            <g id="Group-Copy-4" sketch:type="MSLayerGroup" transform="translate(316.000000, 556.000000)">
                <g id="print-+-Imported-Layers-Copy-2" transform="translate(105.000000, 0.000000)" sketch:type="MSShapeGroup">
                    <path d="M11.7969271,67.2098172 C14.0174922,67.2098172 15.5561514,65.4963102 15.5561514,62.768687 C15.5561514,60.0235789 14.0174922,58.3450416 11.7969271,58.3450416 C10.6079631,58.3450416 9.55887719,58.9570083 8.94691043,59.8137618 L8.94691043,58.5548587 L7.63555309,58.5548587 L7.63555309,70.2171967 L8.94691043,70.2171967 L8.94691043,65.7236122 C9.62881625,66.6677895 10.6429326,67.2098172 11.7969271,67.2098172 L11.7969271,67.2098172 Z M11.4647165,66.038338 C10.4331154,66.038338 9.40151431,65.4088864 8.94691043,64.6745263 L8.94691043,60.8628476 C9.40151431,60.1284875 10.4331154,59.5165208 11.4647165,59.5165208 C13.1607387,59.5165208 14.174855,60.8978172 14.174855,62.768687 C14.174855,64.6395568 13.1607387,66.038338 11.4647165,66.038338 L11.4647165,66.038338 Z M18.9481958,67 L18.9481958,61.0202105 C19.3328606,60.3383047 20.4344007,59.6738837 21.2386999,59.6738837 C21.4485171,59.6738837 21.60588,59.6913684 21.7632428,59.726338 L21.7632428,58.3800111 C20.6092484,58.3800111 19.6301016,59.0269474 18.9481958,59.9186704 L18.9481958,58.5548587 L17.6368384,58.5548587 L17.6368384,67 L18.9481958,67 Z M24.053747,57.34841 C24.5433204,57.34841 24.94547,56.9637452 24.94547,56.4741717 C24.94547,55.9845983 24.5433204,55.5824488 24.053747,55.5824488 C23.5816584,55.5824488 23.1795088,55.9845983 23.1795088,56.4741717 C23.1795088,56.9637452 23.5816584,57.34841 24.053747,57.34841 L24.053747,57.34841 Z M24.7181681,67 L24.7181681,58.5548587 L23.4068107,58.5548587 L23.4068107,67 L24.7181681,67 Z M34.3522733,67 L34.3522733,61.0726648 C34.3522733,59.2367645 33.4255808,58.3450416 31.6596196,58.3450416 C30.4007165,58.3450416 29.2467221,59.0794017 28.6522401,59.7787922 L28.6522401,58.5548587 L27.3408827,58.5548587 L27.3408827,67 L28.6522401,67 L28.6522401,60.8278781 C29.1418135,60.1459723 30.1209603,59.5165208 31.1525614,59.5165208 C32.2890711,59.5165208 33.040916,59.9886094 33.040916,61.4748144 L33.040916,67 L34.3522733,67 Z M39.1081293,67.2098172 C39.8774589,67.2098172 40.3495476,66.9825152 40.6817581,66.6677895 L40.2970933,65.6886427 C40.1222456,65.8809751 39.7725503,66.038338 39.4053703,66.038338 C38.828373,66.038338 38.5486168,65.5837341 38.5486168,64.9542825 L38.5486168,59.7088532 L40.2621237,59.7088532 L40.2621237,58.5548587 L38.5486168,58.5548587 L38.5486168,56.2468698 L37.2372595,56.2468698 L37.2372595,58.5548587 L35.8384783,58.5548587 L35.8384783,59.7088532 L37.2372595,59.7088532 L37.2372595,65.2340388 C37.2372595,66.4929418 37.866711,67.2098172 39.1081293,67.2098172 L39.1081293,67.2098172 Z" id="print" fill="#2A170A"></path>
                    <path d="M44.5772864,3.57608552 L39.758601,3.57608552 L39.758601,1.95713025 C39.758601,0.878336795 38.9129328,0 37.8724509,0 L11.2449708,0 C10.204489,0 9.35734489,0.878336795 9.35734489,1.95713025 L9.35734489,3.57608552 L3.77416358,3.57608552 C2.0990616,3.57608552 0.736842105,4.98846333 0.736842105,6.72524428 L0.736842105,25.1963304 C0.736842105,26.9331114 2.0990616,28.343959 3.77416358,28.343959 L9.35734489,28.343959 L9.35734489,41.2542857 L39.758601,41.2542857 L39.758601,28.343959 L44.5772864,28.343959 C46.2509126,28.343959 47.613132,26.9331114 47.613132,25.1963304 L47.613132,6.72524428 C47.613132,4.98846333 46.2509126,3.57608552 44.5772864,3.57608552 L44.5772864,3.57608552 Z M10.8332057,1.95713025 C10.8332057,1.72147891 11.0176883,1.53020348 11.2449708,1.53020348 L37.8724509,1.53020348 C38.0982576,1.53020348 38.2827402,1.72147891 38.2827402,1.95713025 L38.2827402,3.57608552 L10.8332057,3.57608552 L10.8332057,1.95713025 L10.8332057,1.95713025 Z M10.8332057,17.620293 L38.2842161,17.620293 L38.2842161,39.7240822 L10.8332057,39.7240822 L10.8332057,17.620293 Z M46.1372713,25.1963304 C46.1372713,26.0884391 45.4377133,26.8137555 44.5772864,26.8137555 L39.758601,26.8137555 L39.758601,16.0900896 L9.35734489,16.0900896 L9.35734489,26.8137555 L3.77416358,26.8137555 C2.91373675,26.8137555 2.21270288,26.0884391 2.21270288,25.1963304 L2.21270288,6.72524428 C2.21270288,5.83313565 2.91373675,5.106289 3.77416358,5.106289 L44.5772864,5.106289 C45.4377133,5.106289 46.1372713,5.83313565 46.1372713,6.72524428 L46.1372713,25.1963304 L46.1372713,25.1963304 Z" id="Imported-Layers-Copy-2" stroke="#BD94BD" fill="#BD94BD"></path>
                </g>
            </g>
        </g>
    </g>
</svg>