<?xml version="1.0" encoding="utf-8"?>
<!-- Generator: Adobe Illustrator 18.1.1, SVG Export Plug-In . SVG Version: 6.00 Build 0)  -->
<svg version="1.1" id="Layer_1" xmlns="http://www.w3.org/2000/svg" xmlns:xlink="http://www.w3.org/1999/xlink" x="0px" y="0px"
	 viewBox="-245 337 120 120" enable-background="new -245 337 120 120" xml:space="preserve">
<title>Group 148</title>
<g>
	<path fill="#E72400" d="M-184.9,337.1c-33.1,0-59.9,26.8-59.9,59.9c0,33.1,26.8,59.9,59.9,59.9c33.1,0,59.9-26.8,59.9-59.9
		C-125,364-151.8,337.1-184.9,337.1"/>
	<path fill="#EE5E48" d="M-183.7,390.3l-0.2,0.1l-0.9-0.8l-0.2-0.5L-183.7,390.3L-183.7,390.3z M-185,389.1v0.5h0.2L-185,389.1z"/>
	<path fill="#FEFEFD" d="M-197.6,388.7l-10.5,10.5c-2.9,2.9-4.5,6.7-4.5,10.8c0,4.1,1.6,7.9,4.5,10.8c6,6,15.7,6,21.6,0l6-6
		c0.1-0.1,0.1-0.1,0.2-0.2c-3.6,0.8-7.4,0.4-10.8-1.5c-0.1,0-0.1-0.1-0.2-0.1l-1.5,1.5c-2.5,2.5-6.5,2.5-8.9,0
		c-1.2-1.2-1.8-2.8-1.8-4.5c0-1.7,0.7-3.3,1.8-4.5l10.5-10.5c2-2,5.1-2.4,7.5-1.1c2.2,1.2,4.9,0.4,6.1-1.8c0.4-0.7,0.6-1.4,0.6-2.2
		c0-1.6-0.8-3.1-2.3-3.9C-185.3,382.8-192.8,383.9-197.6,388.7"/>
	<path fill="#7E7D82" d="M-160.6,394.9c2.9-2.9,4.5-6.7,4.5-10.8c0-4.1-1.6-7.9-4.5-10.8c-6-6-15.7-6-21.6,0l-6,6
		c-0.1,0.1-0.1,0.1-0.2,0.2c3.6-0.8,7.4-0.4,10.8,1.5c0.1,0,0.1,0.1,0.2,0.1l1.5-1.5c2.5-2.5,6.5-2.5,8.9,0c1.2,1.2,1.8,2.8,1.8,4.5
		c0,1.7-0.7,3.3-1.8,4.5l-10.5,10.5c-2,2-5.1,2.4-7.5,1.1c-2.2-1.2-4.9-0.4-6.1,1.8c-0.4,0.7-0.6,1.4-0.6,2.2c0,1.6,0.8,3.1,2.3,3.9
		c5.9,3.3,13.4,2.2,18.2-2.6L-160.6,394.9L-160.6,394.9z"/>
	<path fill="#C1BCB5" d="M-208.1,420.9c0.4,0.4,0.8,0.7,1.2,1.1l-2.3-2.3C-208.8,420.1-208.5,420.5-208.1,420.9 M-187.6,393.3
		c0.3,0,0.6-0.1,0.8-0.1C-187,393.3-187.3,393.3-187.6,393.3 M-186,393.3c-0.1,0-0.3,0-0.4,0C-186.3,393.3-186.1,393.3-186,393.3
		 M-188,393.4C-188,393.4-188,393.4-188,393.4c0.1,0,0.2,0,0.3,0C-187.8,393.4-187.9,393.4-188,393.4 M-195.4,425.2
		c-0.3,0-0.5,0.1-0.8,0.1C-195.9,425.3-195.6,425.3-195.4,425.2 M-194,425c-0.3,0.1-0.6,0.1-1,0.2C-194.6,425.1-194.3,425.1-194,425
		 M-196.9,425.4c-0.2,0-0.3,0-0.5,0C-197.2,425.4-197.1,425.4-196.9,425.4 M-196.4,416.3l-0.1,0L-196.4,416.3 M-179.4,386.2
		c-0.6-0.4-1.3-0.7-2-0.9l0,0c0.9,0.3,1.8,0.8,2.6,1.3C-179,386.5-179.2,386.3-179.4,386.2 M-197.3,416.4c-0.1,0-0.2,0-0.4,0
		C-197.6,416.4-197.4,416.4-197.3,416.4 M-198.1,416.3c-0.3,0-0.6-0.1-0.9-0.2C-198.7,416.2-198.4,416.3-198.1,416.3 M-185,393.5
		C-185,393.5-185,393.5-185,393.5L-185,393.5 M-194,425c2.8-0.6,5.4-2,7.5-4.1l6-6c0.1-0.1,0.1-0.1,0.1-0.2l-6.2,6.2
		C-188.6,423-191.2,424.4-194,425 M-182.7,401c-0.3,0-0.6-0.1-0.9-0.2C-183.3,400.9-183,400.9-182.7,401 M-171,377.9
		c0.1,0,0.3,0,0.4,0C-170.7,377.9-170.8,377.9-171,377.9 M-172.2,378c0.3,0,0.6,0,0.8,0C-171.6,377.9-171.9,377.9-172.2,378
		 M-181.9,401c-0.1,0-0.2,0-0.4,0C-182.1,401-182,401-181.9,401 M-180.9,400.9l-0.1,0L-180.9,400.9 M-173.9,407.7L-173.9,407.7
		c1-0.6,1.9-1.3,2.8-2.2l6-6c0.1-0.1,0.1-0.1,0.1-0.2l-6.2,6.2C-171.9,406.4-172.9,407.1-173.9,407.7 M-169.6,378.2L-169.6,378.2
		L-169.6,378.2 M-172.5,369c0.2,0,0.5,0,0.7,0C-172,369-172.2,369-172.5,369 M-173.7,369.1c0.1,0,0.3,0,0.4-0.1
		C-173.4,369.1-173.6,369.1-173.7,369.1 M-174.7,369.3L-174.7,369.3L-174.7,369.3 M-163.9,370.8c-2.3-1.3-4.8-1.9-7.3-1.9
		c2.7,0,5.5,0.8,7.9,2.3C-163.5,371.1-163.7,370.9-163.9,370.8 M-190.1,384.7L-190.1,384.7L-190.1,384.7 M-187.2,384.3
		c-0.2,0-0.5,0-0.7,0C-187.7,384.3-187.4,384.3-187.2,384.3"/>
	<path fill="#C1BCB5" d="M-186.7,384.3c1.8,0,3.6,0.4,5.3,1l0,0C-183.1,384.6-184.9,384.3-186.7,384.3 M-188.7,384.4l-0.4,0.1
		L-188.7,384.4 M-160.6,373.4c-0.3-0.3-0.7-0.6-1-0.9l1.9,1.9C-159.9,374.1-160.2,373.7-160.6,373.4 M-171.3,377.9
		c0.1,0,0.2,0,0.4,0C-171.1,377.9-171.2,377.9-171.3,377.9 M-183.7,400.8L-183.7,400.8L-183.7,400.8 M-170.6,378
		c0.3,0,0.6,0.1,0.9,0.2C-169.9,378.1-170.2,378-170.6,378 M-174.7,369.3c-2.8,0.6-5.4,2-7.5,4.1l-6,6c-0.1,0.1-0.1,0.1-0.1,0.2
		l6.2-6.2C-180.1,371.3-177.4,369.9-174.7,369.3 M-172.3,378l0.1,0L-172.3,378 M-174.7,369.3c0.3-0.1,0.6-0.1,1-0.2
		C-174,369.2-174.3,369.2-174.7,369.3 M-189.9,407.7c0.2,0.1,0.4,0.3,0.6,0.4c0.6,0.4,1.3,0.7,2,0.9l0,0
		C-188.2,408.6-189,408.2-189.9,407.7 M-181.1,401c-0.3,0-0.5,0.1-0.8,0.1C-181.6,401-181.4,401-181.1,401 M-173.3,369.1
		c0.3,0,0.5-0.1,0.8-0.1C-172.8,369-173,369-173.3,369.1 M-171.8,368.9c0.2,0,0.3,0,0.5,0C-171.4,368.9-171.6,368.9-171.8,368.9
		 M-182.3,401c-0.1,0-0.3,0-0.4,0C-182.5,401-182.4,401-182.3,401 M-180.6,400.9L-180.6,400.9c-0.1,0-0.2,0-0.3,0
		C-180.8,400.9-180.7,400.9-180.6,400.9 M-197.7,416.4c-0.1,0-0.3,0-0.4,0C-198,416.4-197.8,416.4-197.7,416.4 M-194,425L-194,425
		L-194,425 M-194.8,386.6L-194.8,386.6c-1,0.6-1.9,1.3-2.8,2.2l-6,6c-0.1,0.1-0.1,0.1-0.1,0.2l6.2-6.2
		C-196.7,387.9-195.8,387.2-194.8,386.6 M-196.5,416.3c-0.3,0-0.6,0.1-0.8,0.1C-197.1,416.4-196.8,416.4-196.5,416.3 M-187.6,393.3
		l-0.1,0L-187.6,393.3 M-195,425.2c-0.1,0-0.3,0-0.4,0.1L-195,425.2 M-199.1,416.1C-199.1,416.1-199,416.1-199.1,416.1
		C-199,416.1-199.1,416.1-199.1,416.1 M-186.8,393.3c0.1,0,0.2,0,0.4,0C-186.5,393.3-186.6,393.3-186.8,393.3 M-185.1,393.5
		c-0.3-0.1-0.6-0.1-0.9-0.2C-185.7,393.4-185.4,393.4-185.1,393.5 M-204.7,423.5c2.3,1.3,4.8,1.9,7.3,1.9c-2.7,0-5.5-0.8-7.9-2.3
		C-205.1,423.2-204.9,423.4-204.7,423.5 M-196.2,425.3c-0.2,0-0.5,0-0.7,0C-196.7,425.3-196.4,425.3-196.2,425.3 M-187.9,384.4
		c-0.3,0-0.5,0-0.8,0.1C-188.4,384.4-188.2,384.4-187.9,384.4 M-189.1,384.5c-0.3,0-0.6,0.1-1,0.2
		C-189.8,384.6-189.4,384.6-189.1,384.5 M-178.6,409.6c-0.3,0.1-0.6,0.1-1,0.2C-179.2,409.7-178.9,409.7-178.6,409.6 M-187.2,384.3
		c0.2,0,0.3,0,0.5,0C-186.8,384.3-187,384.3-187.2,384.3"/>
	<path fill="#C1BCB5" d="M-190.1,384.7c-1.6,0.4-3.2,1-4.7,1.9l0,0C-193.3,385.7-191.7,385-190.1,384.7 M-180,409.9
		c-0.3,0-0.5,0.1-0.8,0.1C-180.5,409.9-180.2,409.9-180,409.9 M-181.5,410c-0.2,0-0.3,0-0.5,0C-181.8,410-181.7,410-181.5,410
		 M-178.6,409.6c1.6-0.4,3.2-1,4.7-1.9c0,0,0,0,0,0C-175.3,408.6-176.9,409.2-178.6,409.6 M-187.3,409c1.7,0.6,3.5,1,5.3,1
		C-183.8,410-185.6,409.6-187.3,409L-187.3,409L-187.3,409z M-178.6,409.6L-178.6,409.6L-178.6,409.6 M-180.7,409.9
		c-0.2,0-0.5,0-0.7,0C-181.2,410-181,410-180.7,409.9 M-179.5,409.8c-0.1,0-0.3,0-0.4,0.1C-179.8,409.8-179.7,409.8-179.5,409.8"/>
</g>
</svg>
