<?xml version="1.0" encoding="utf-8"?>
<!-- Generator: Adobe Illustrator 18.1.1, SVG Export Plug-In . SVG Version: 6.00 Build 0)  -->
<svg version="1.1" id="Layer_1" xmlns="http://www.w3.org/2000/svg" xmlns:xlink="http://www.w3.org/1999/xlink" x="0px" y="0px"
	 viewBox="-245 337 120 120" enable-background="new -245 337 120 120" xml:space="preserve">
<title>Group 148 Copy 4 + Page 1</title>
<g>
	<path fill="#F17719" d="M-184.9,337.1c-33.1,0-59.9,26.8-59.9,59.9c0,33.1,26.8,59.9,59.9,59.9c33.1,0,59.9-26.8,59.9-59.9
		C-125,364-151.8,337.1-184.9,337.1"/>
	<path fill="#EE5E48" d="M-183.7,390.3l-0.2,0.1l-0.9-0.8l-0.2-0.5L-183.7,390.3L-183.7,390.3z M-185,389.1v0.5h0.2L-185,389.1z"/>
	<path fill="#C1BCB5" d="M-188,393.4C-188,393.4-188,393.4-188,393.4c0.1,0,0.2,0,0.3,0C-187.8,393.4-187.9,393.4-188,393.4
		 M-195.4,425.2c-0.3,0-0.5,0.1-0.8,0.1C-195.9,425.3-195.6,425.3-195.4,425.2 M-196.9,425.4c-0.2,0-0.3,0-0.5,0
		C-197.2,425.4-197.1,425.4-196.9,425.4 M-196.4,416.3l-0.1,0L-196.4,416.3 M-197.3,416.4c-0.1,0-0.2,0-0.4,0
		C-197.6,416.4-197.4,416.4-197.3,416.4 M-185,393.5C-185,393.5-185,393.5-185,393.5L-185,393.5 M-171,377.9c0.1,0,0.3,0,0.4,0
		C-170.7,377.9-170.8,377.9-171,377.9 M-180.9,400.9l-0.1,0L-180.9,400.9 M-169.6,378.2L-169.6,378.2L-169.6,378.2 M-174.7,369.3
		L-174.7,369.3L-174.7,369.3 M-190.1,384.7L-190.1,384.7L-190.1,384.7"/>
	<path fill="#C1BCB5" d="M-188.7,384.4l-0.4,0.1L-188.7,384.4 M-160.6,373.4c-0.3-0.3-0.7-0.6-1-0.9l1.9,1.9
		C-159.9,374.1-160.2,373.7-160.6,373.4 M-171.3,377.9c0.1,0,0.2,0,0.4,0C-171.1,377.9-171.2,377.9-171.3,377.9 M-183.7,400.8
		L-183.7,400.8L-183.7,400.8 M-170.6,378c0.3,0,0.6,0.1,0.9,0.2C-169.9,378.1-170.2,378-170.6,378 M-172.3,378l0.1,0L-172.3,378
		 M-174.7,369.3c0.3-0.1,0.6-0.1,1-0.2C-174,369.2-174.3,369.2-174.7,369.3 M-181.1,401c-0.3,0-0.5,0.1-0.8,0.1
		C-181.6,401-181.4,401-181.1,401 M-171.8,368.9c0.2,0,0.3,0,0.5,0C-171.4,368.9-171.6,368.9-171.8,368.9 M-182.3,401
		c-0.1,0-0.3,0-0.4,0C-182.5,401-182.4,401-182.3,401 M-180.6,400.9L-180.6,400.9c-0.1,0-0.2,0-0.3,0
		C-180.8,400.9-180.7,400.9-180.6,400.9 M-197.7,416.4c-0.1,0-0.3,0-0.4,0C-198,416.4-197.8,416.4-197.7,416.4 M-194,425L-194,425
		L-194,425 M-196.5,416.3c-0.3,0-0.6,0.1-0.8,0.1C-197.1,416.4-196.8,416.4-196.5,416.3 M-187.6,393.3l-0.1,0L-187.6,393.3
		 M-195,425.2c-0.1,0-0.3,0-0.4,0.1L-195,425.2 M-199.1,416.1C-199.1,416.1-199,416.1-199.1,416.1
		C-199,416.1-199.1,416.1-199.1,416.1 M-186.8,393.3c0.1,0,0.2,0,0.4,0C-186.5,393.3-186.6,393.3-186.8,393.3 M-185.1,393.5
		c-0.3-0.1-0.6-0.1-0.9-0.2C-185.7,393.4-185.4,393.4-185.1,393.5 M-187.9,384.4c-0.3,0-0.5,0-0.8,0.1
		C-188.4,384.4-188.2,384.4-187.9,384.4 M-189.1,384.5c-0.3,0-0.6,0.1-1,0.2C-189.8,384.6-189.4,384.6-189.1,384.5 M-178.6,409.6
		c-0.3,0.1-0.6,0.1-1,0.2C-179.2,409.7-178.9,409.7-178.6,409.6 M-187.2,384.3c0.2,0,0.3,0,0.5,0
		C-186.8,384.3-187,384.3-187.2,384.3"/>
	<path fill="#C1BCB5" d="M-190.1,384.7c-1.6,0.4-3.2,1-4.7,1.9l0,0C-193.3,385.7-191.7,385-190.1,384.7 M-180,409.9
		c-0.3,0-0.5,0.1-0.8,0.1C-180.5,409.9-180.2,409.9-180,409.9 M-181.5,410c-0.2,0-0.3,0-0.5,0C-181.8,410-181.7,410-181.5,410
		 M-187.3,409c1.7,0.6,3.5,1,5.3,1C-183.8,410-185.6,409.6-187.3,409L-187.3,409L-187.3,409z M-178.6,409.6L-178.6,409.6
		L-178.6,409.6 M-180.7,409.9c-0.2,0-0.5,0-0.7,0C-181.2,410-181,410-180.7,409.9 M-179.5,409.8c-0.1,0-0.3,0-0.4,0.1
		C-179.8,409.8-179.7,409.8-179.5,409.8"/>
	<g>
		<path fill="#E5E5E5" d="M-201.7,402.1l5.4,18.3l3.6-14.6l29-29.2L-201.7,402.1z"/>
		<g transform="translate(27 35)">
			<defs>
				<filter id="Adobe_OpacityMaskFilter" filterUnits="userSpaceOnUse" x="-245" y="337.8" width="57.9" height="51.2">
					<feColorMatrix  type="matrix" values="1 0 0 0 0  0 1 0 0 0  0 0 1 0 0  0 0 0 1 0"/>
				</filter>
			</defs>
			<mask maskUnits="userSpaceOnUse" x="-245" y="337.8" width="57.9" height="51.2" id="b">
				<g filter="url(#Adobe_OpacityMaskFilter)">
					<path id="a" fill="#FFFFFF" d="M-245,337.8h57.9V389H-245"/>
				</g>
			</mask>
			<path mask="url(#b)" fill="#FFFFFF" d="M-187.9,338.6c-1.2-1.3-3.6-0.6-5.4,0l-49.9,21.2c-2.4,1-2.3,4.1-0.2,4.7l14.7,2.6
				l9.1,3.7l17.2,17.4c1.1,1,3.8,1.7,4.5-0.9l10.5-43C-187.1,342.4-186.6,339.9-187.9,338.6"/>
		</g>
		<path fill="#626263" d="M-201.7,402.1l5.4,18.3l3.6-14.6l29-29.2L-201.7,402.1z"/>
		<path fill="#777779" d="M-196.3,420.3l9.1-9.1l-5.4-5.5L-196.3,420.3z"/>
	</g>
</g>
</svg>
