<svg width="120" height="120" viewBox="0 0 120 120" xmlns="http://www.w3.org/2000/svg" xmlns:xlink="http://www.w3.org/1999/xlink"><title>Page 1</title><defs><path id="a" d="M.043 60.097c0 33.06 26.8 59.86 59.86 59.86 33.057 0 59.858-26.8 59.858-59.86C119.76 27.04 92.96.24 59.904.24 26.843.24.043 27.04.043 60.096z"/><path id="c" d="M78.006 61.545l-16.35 16.35L.727 16.962 17.074.613l60.932 60.932z"/></defs><g fill="none" fill-rule="evenodd"><g><mask id="b" fill="#fff"><use xlink:href="#a"/></mask><path d="M-4-3.805h127.805V124H-4V-3.805z" fill="#72C7E5" mask="url(#b)"/></g><path d="M49.94 30.363l-1.317 1.318-4.044 4.045h37.303v4.398H40.18l-4.044 4.044-2.612 2.612v43.05h52.76V30.364H49.94z" fill="#FEFEFD"/><path d="M37.922 48.916h43.96v-2.198h-43.96v2.198zM37.922 57.707h43.96V55.51h-43.96v2.197zM37.922 66.5h43.96V64.3h-43.96V66.5zM37.922 53.314h43.96v-2.2h-43.96v2.2zM37.922 62.106h43.96v-2.2h-43.96v2.2zM37.922 75.295h43.962v-2.2H37.922v2.2zM37.922 84.086h43.962V81.89H37.922v2.196zM37.922 70.898h43.962V68.7H37.922V70.9zM37.922 79.69h43.962v-2.196H37.922v2.195z" fill="#E6E4E1"/><path d="M37.922 44.52h43.962v-2.2H37.922v2.2z" fill="#F9C53E"/><path d="M81.883 35.725H44.58l-4.4 4.398h41.703v-4.398z" fill="#41A9C4"/><g transform="translate(32.8 29.6)"><mask id="d" fill="#fff"><use xlink:href="#c"/></mask><path d="M78.006 61.545l-16.35 16.35L.727 16.962 17.074.613l60.932 60.932z" mask="url(#d)"/></g><path d="M33.524 46.78h16.45V30.362L33.523 46.78zM86.282 30.363z" fill="#FEFEFD"/></g></svg>