<?xml version="1.0" encoding="utf-8"?>
<!-- Generator: Adobe Illustrator 18.1.1, SVG Export Plug-In . SVG Version: 6.00 Build 0)  -->
<svg version="1.1" id="Layer_1" xmlns="http://www.w3.org/2000/svg" xmlns:xlink="http://www.w3.org/1999/xlink" x="0px" y="0px"
	 viewBox="0 126.4 612 617.9" enable-background="new 0 126.4 612 617.9" xml:space="preserve">
<title>Group 148 Copy 4 + Page 1</title>
<g>
	<path fill="#E72400" d="M306,130.5C137.2,130.5,0.5,267.2,0.5,436S137.2,741.5,306,741.5S611.5,604.8,611.5,436
		C611.5,267.7,474.8,130.5,306,130.5"/>
	<path fill="#EE5E48" d="M312.1,401.8l-1,0.5l-4.6-4.1l-1-2.5L312.1,401.8L312.1,401.8z M305.5,395.7v2.5h1L305.5,395.7z"/>
	<path fill="#C1BCB5" d="M187.7,557.9c2,2,4.1,3.6,6.1,5.6l-11.7-11.7C184.1,553.8,185.6,555.9,187.7,557.9 M292.2,417.1
		c1.5,0,3.1-0.5,4.1-0.5C295.3,417.1,293.8,417.1,292.2,417.1 M300.4,417.1c-0.5,0-1.5,0-2,0C298.9,417.1,299.9,417.1,300.4,417.1
		 M290.2,417.6L290.2,417.6c0.5,0,1,0,1.5,0C291.2,417.6,290.7,417.6,290.2,417.6 M252.4,579.8c-1.5,0-2.6,0.5-4.1,0.5
		C249.9,580.3,251.4,580.3,252.4,579.8 M259.6,578.8c-1.5,0.5-3.1,0.5-5.1,1C256.5,579.3,258.1,579.3,259.6,578.8 M244.8,580.8
		c-1,0-1.5,0-2.5,0C243.3,580.8,243.8,580.8,244.8,580.8 M247.3,534.4h-0.5H247.3 M334,380.9c-3.1-2-6.6-3.6-10.2-4.6l0,0
		c4.6,1.5,9.2,4.1,13.3,6.6C336.1,382.5,335.1,381.4,334,380.9 M242.8,534.9c-0.5,0-1,0-2,0C241.2,534.9,242.2,534.9,242.8,534.9
		 M238.7,534.4c-1.5,0-3.1-0.5-4.6-1C235.6,533.9,237.1,534.4,238.7,534.4 M305.5,418.2L305.5,418.2L305.5,418.2 M259.6,578.8
		c14.3-3.1,27.5-10.2,38.2-20.9l30.6-30.6c0.5-0.5,0.5-0.5,0.5-1l-31.6,31.6C287.1,568.6,273.9,575.7,259.6,578.8 M317.2,456.4
		c-1.5,0-3.1-0.5-4.6-1C314.2,455.9,315.7,455.9,317.2,456.4 M376.9,338.6c0.5,0,1.5,0,2,0C378.4,338.6,377.9,338.6,376.9,338.6
		 M370.8,339.1c1.5,0,3.1,0,4.1,0C373.8,338.6,372.3,338.6,370.8,339.1 M321.3,456.4c-0.5,0-1,0-2,0
		C320.3,456.4,320.8,456.4,321.3,456.4 M326.4,455.9h-0.5H326.4 M362.1,490.6L362.1,490.6c5.1-3.1,9.7-6.6,14.3-11.2l30.6-30.6
		c0.5-0.5,0.5-0.5,0.5-1l-31.6,31.6C372.3,483.9,367.2,487.5,362.1,490.6 M384,340.1L384,340.1L384,340.1 M369.2,293.2
		c1,0,2.5,0,3.6,0C371.8,293.2,370.8,293.2,369.2,293.2 M363.1,293.7c0.5,0,1.5,0,2-0.5C364.6,293.7,363.6,293.7,363.1,293.7
		 M358,294.7L358,294.7L358,294.7 M413.1,302.4c-11.7-6.6-24.5-9.7-37.2-9.7c13.8,0,28,4.1,40.3,11.7
		C415.1,303.9,414.1,302.9,413.1,302.4 M279.5,373.3L279.5,373.3L279.5,373.3 M294.3,371.2c-1,0-2.5,0-3.6,0
		C291.7,371.2,293.2,371.2,294.3,371.2"/>
	<path fill="#C1BCB5" d="M296.8,371.2c9.2,0,18.4,2,27,5.1l0,0C315.2,372.8,306,371.2,296.8,371.2 M286.6,371.7l-2,0.5L286.6,371.7
		 M429.9,315.6c-1.5-1.5-3.6-3.1-5.1-4.6l9.7,9.7C433.5,319.2,432,317.2,429.9,315.6 M375.4,338.6c0.5,0,1,0,2,0
		C376.4,338.6,375.9,338.6,375.4,338.6 M312.1,455.4L312.1,455.4L312.1,455.4 M378.9,339.1c1.5,0,3.1,0.5,4.6,1
		C382.5,339.6,381,339.1,378.9,339.1 M358,294.7c-14.3,3.1-27.5,10.2-38.2,20.9l-30.6,30.6c-0.5,0.5-0.5,0.5-0.5,1l31.6-31.6
		C330.5,304.9,344.2,297.8,358,294.7 M370.3,339.1h0.5H370.3 M358,294.7c1.5-0.5,3.1-0.5,5.1-1C361.6,294.2,360.1,294.2,358,294.7
		 M280.5,490.6c1,0.5,2,1.5,3.1,2c3.1,2,6.6,3.6,10.2,4.6l0,0C289.2,495.2,285.1,493.1,280.5,490.6 M325.4,456.4
		c-1.5,0-2.5,0.5-4.1,0.5C322.8,456.4,323.8,456.4,325.4,456.4 M365.2,293.7c1.5,0,2.5-0.5,4.1-0.5
		C367.7,293.2,366.7,293.2,365.2,293.7 M372.8,292.7c1,0,1.5,0,2.5,0C374.8,292.7,373.8,292.7,372.8,292.7 M319.3,456.4
		c-0.5,0-1.5,0-2,0C318.2,456.4,318.7,456.4,319.3,456.4 M327.9,455.9L327.9,455.9c-0.5,0-1,0-1.5,0
		C326.9,455.9,327.4,455.9,327.9,455.9 M240.7,534.9c-0.5,0-1.5,0-2,0C239.2,534.9,240.2,534.9,240.7,534.9 M259.6,578.8
		L259.6,578.8L259.6,578.8 M255.5,383L255.5,383c-5.1,3.1-9.7,6.6-14.3,11.2l-30.6,30.6c-0.5,0.5-0.5,0.5-0.5,1l31.6-31.6
		C245.8,389.6,250.4,386,255.5,383 M246.8,534.4c-1.5,0-3.1,0.5-4.1,0.5C243.8,534.9,245.3,534.9,246.8,534.4 M292.2,417.1h-0.5
		H292.2 M254.5,579.8c-0.5,0-1.5,0-2,0.5L254.5,579.8 M233.6,533.4C233.6,533.4,234.1,533.4,233.6,533.4
		C234.1,533.4,233.6,533.4,233.6,533.4 M296.3,417.1c0.5,0,1,0,2,0C297.8,417.1,297.3,417.1,296.3,417.1 M305,418.2
		c-1.5-0.5-3.1-0.5-4.6-1C301.9,417.6,303.4,417.6,305,418.2 M205,571.2c11.7,6.6,24.5,9.7,37.2,9.7c-13.8,0-28.1-4.1-40.3-11.7
		C203,569.6,204,570.6,205,571.2 M248.4,580.3c-1,0-2.6,0-3.6,0C245.8,580.3,247.3,580.3,248.4,580.3 M290.7,371.7
		c-1.5,0-2.6,0-4.1,0.5C288.1,371.7,289.2,371.7,290.7,371.7 M284.6,372.2c-1.5,0-3.1,0.5-5.1,1C281,372.8,283,372.8,284.6,372.2
		 M338.1,500.3c-1.5,0.5-3.1,0.5-5.1,1C335.1,500.8,336.6,500.8,338.1,500.3 M294.3,371.2c1,0,1.5,0,2.6,0
		C296.3,371.2,295.3,371.2,294.3,371.2"/>
	<path fill="#C1BCB5" d="M279.5,373.3c-8.2,2-16.3,5.1-24,9.7l0,0C263.2,378.4,271.3,374.8,279.5,373.3 M331,501.8
		c-1.5,0-2.6,0.5-4.1,0.5C328.4,501.8,330,501.8,331,501.8 M323.3,502.3c-1,0-1.5,0-2.5,0C321.8,502.3,322.3,502.3,323.3,502.3
		 M293.8,497.2c8.7,3.1,17.9,5.1,27,5.1C311.6,502.3,302.4,500.3,293.8,497.2L293.8,497.2L293.8,497.2z M338.1,500.3L338.1,500.3
		L338.1,500.3 M327.4,501.8c-1,0-2.5,0-3.6,0C324.9,502.3,325.9,502.3,327.4,501.8 M333.5,501.3c-0.5,0-1.5,0-2,0.5
		C332,501.3,332.5,501.3,333.5,501.3"/>
	<g>
		<path fill="#E5E5E5" d="M220.3,462l27.5,93.3l18.4-74.5L414.1,332L220.3,462z"/>
		<g transform="translate(27 35)">
			<defs>
				<filter id="Adobe_OpacityMaskFilter" filterUnits="userSpaceOnUse" x="110.3" y="277.9" width="295.5" height="261.3">
					<feColorMatrix  type="matrix" values="1 0 0 0 0  0 1 0 0 0  0 0 1 0 0  0 0 0 1 0"/>
				</filter>
			</defs>
			<mask maskUnits="userSpaceOnUse" x="110.3" y="277.9" width="295.5" height="261.3" id="b">
				<g filter="url(#Adobe_OpacityMaskFilter)">
					<path id="a" fill="#FFFFFF" d="M110.2,277.6h295.3v261.1H110.2"/>
				</g>
			</mask>
			<path mask="url(#b)" fill="#FFFFFF" d="M401.4,281.7c-6.1-6.6-18.4-3.1-27.5,0L119.4,389.8c-12.2,5.1-11.7,20.9-1,24l75,13.3
				l46.4,18.9l87.7,88.7c5.6,5.1,19.4,8.7,23-4.6L404,310.7C405.5,301,408,288.3,401.4,281.7"/>
		</g>
		<path fill="#525254" d="M220.3,462l27.5,93.3l18.4-74.5L414.1,332L220.3,462z"/>
		<path fill="#7E7D82" d="M247.9,554.8l46.4-46.4l-27.5-28.1L247.9,554.8z"/>
	</g>
</g>
</svg>
