<svg width="120" height="120" viewBox="0 0 120 120" xmlns="http://www.w3.org/2000/svg" xmlns:xlink="http://www.w3.org/1999/xlink"><title>Group 3 + Group 6 + Group 9</title><defs><path id="a" d="M0 60.206c0 33.024 26.772 59.796 59.797 59.796 33.024 0 59.795-26.772 59.795-59.796S92.822.41 59.797.41C26.772.41 0 27.182 0 60.206z"/><path id="c" d="M9.583.294C4.345.294.1 4.54.1 9.774v3.948c0 4.538 3.192 8.326 7.45 9.26v5.55c0 1.705.994 2.12 2.204.922l6.33-6.253h9.292c5.234 0 9.478-4.244 9.478-9.478V9.774c0-5.234-4.244-9.48-9.478-9.48H9.583z"/><path id="e" d="M14.478.674C6.598.674.208 7.064.208 14.942v5.945c0 7.88 6.39 14.268 14.27 14.268h10.554l9.53 9.415c1.825 1.807 3.32 1.18 3.32-1.39v-8.355c6.412-1.4 11.21-7.107 11.21-13.938v-5.945c0-7.878-6.387-14.268-14.266-14.268H14.478z"/></defs><g fill="none" fill-rule="evenodd"><g><mask id="b" fill="#fff"><use xlink:href="#a"/></mask><path d="M-4-3.59h127.593v127.592H-4V-3.59z" fill="#72C7E5" mask="url(#b)"/></g><g transform="translate(28.8 56.8)"><mask id="d" fill="#fff"><use xlink:href="#c"/></mask><path d="M-3.9-3.706h42.754v37.844H-3.9V-3.706z" fill="#298DA7" mask="url(#d)"/></g><g transform="translate(43.6 35.8)"><mask id="f" fill="#fff"><use xlink:href="#e"/></mask><path d="M-3.79-3.326h56.883v52.928H-3.79V-3.326z" fill="#FEFEFD" mask="url(#f)"/></g></g></svg>