<svg width="120" height="120" viewBox="0 0 120 120" xmlns="http://www.w3.org/2000/svg" xmlns:xlink="http://www.w3.org/1999/xlink"><title>Page 1</title><defs><path id="a" d="M.333 60c0 33.136 26.773 60 59.797 60s59.796-26.864 59.796-60c0-33.138-26.772-60-59.796-60S.333 26.863.333 60z"/></defs><g fill="none" fill-rule="evenodd"><g><mask id="b" fill="#fff"><use xlink:href="#a"/></mask><path d="M-3.2-4h127.593v128H-3.2V-4z" fill="#72C7E5" mask="url(#b)"/></g><path d="M92.252 58.38l-10.105 3.515c-.72.25-1.47-.284-1.47-1.045v-3.812c0-.61-.497-1.107-1.11-1.107H35.94c-.612 0-1.108.497-1.108 1.108v28.235c0 .61.496 1.107 1.108 1.107h43.628c.612 0 1.108-.496 1.108-1.107v-3.81c0-.763.752-1.297 1.47-1.047l10.106 3.514c.72.25 1.47-.283 1.47-1.045v-23.46c0-.76-.75-1.295-1.47-1.044" fill="#FEFEFD"/><path d="M53.612 40.99c0 5.185-4.204 9.39-9.39 9.39-5.186 0-9.39-4.205-9.39-9.39 0-5.186 4.204-9.39 9.39-9.39 5.186 0 9.39 4.204 9.39 9.39zM78.222 40.99c0 5.185-4.204 9.39-9.39 9.39-5.186 0-9.39-4.205-9.39-9.39 0-5.186 4.204-9.39 9.39-9.39 5.186 0 9.39 4.204 9.39 9.39z" stroke="#FEFEFD" stroke-width="5"/><path d="M43.713 79.552h16.543" stroke="#72C7E5" stroke-width="5" stroke-linecap="round"/></g></svg>