<svg width="120" height="120" viewBox="0 0 120 120" xmlns="http://www.w3.org/2000/svg" xmlns:xlink="http://www.w3.org/1999/xlink"><title>Group 148 Copy 4 + Page 1</title><defs><path id="a" d="M0 .82h57.944V52H0"/></defs><g fill="none" fill-rule="evenodd"><path d="M60.063.137C26.963.137.133 26.97.133 60.067c0 33.1 26.83 59.933 59.93 59.933 33.098 0 59.93-26.832 59.93-59.932 0-33.097-26.832-59.93-59.93-59.93" fill="#72C7E5"/><path d="M61.337 53.32l-.175.115-.944-.84-.214-.463 1.333 1.187zM60.003 52.132v.463h.214l-.214-.463z" fill="#EE5E48"/><path d="M36.913 83.902c.38.38.78.737 1.19 1.07l-2.256-2.256c.334.41.688.808 1.066 1.186M57.425 56.337c.274-.036.55-.05.825-.05-.276-.003-.55.017-.825.05M59.018 56.344c-.138-.02-.276-.032-.415-.04.14.007.277.023.415.04M56.975 56.404c0 .008-.004.016-.006.024.106-.022.21-.054.318-.07-.104.014-.21.025-.313.046M49.615 88.24c-.26.033-.517.057-.777.078.26-.02.518-.047.777-.08M51.002 88.003c-.32.072-.646.126-.97.176.324-.05.648-.106.97-.177M48.1 88.353c-.175.005-.348.012-.52.01.172.003.345-.006.52-.01M48.63 79.324l-.136.02.135-.02M65.64 49.208c-.647-.36-1.317-.657-1.997-.914l-.02.02c.895.337 1.76.764 2.59 1.276-.178-.14-.367-.27-.572-.382M47.668 79.394c-.117 0-.234-.01-.352-.016.118.006.235.016.352.016M46.9 79.337c-.312-.04-.622-.1-.926-.188.306.085.614.15.926.187M60.007 56.547c-.02-.006-.04-.01-.062-.015l.062.015M51.013 88c2.755-.603 5.376-1.96 7.513-4.098l5.992-5.992c.055-.054.097-.117.144-.176l-6.172 6.172c-2.096 2.097-4.706 3.478-7.477 4.095M62.323 63.953c-.313-.04-.624-.1-.928-.188.306.086.615.15.928.188M74.025 40.92c.14.007.277.023.416.04-.138-.02-.276-.032-.415-.04M72.847 40.953c.274-.036.55-.05.825-.05-.275-.003-.55.016-.825.05M63.09 64.01c-.116 0-.234-.01-.352-.017.118.007.236.017.353.017M64.052 63.94l-.136.02.136-.02M71.133 70.708l-.012.02c1.006-.615 1.96-1.342 2.83-2.21l5.99-5.992c.055-.055.097-.117.145-.176l-6.172 6.172c-.85.85-1.786 1.575-2.78 2.186M75.43 41.163l-.06-.016.06.016M72.503 31.98c.246-.02.49-.03.737-.036-.246.007-.49.016-.737.035M71.31 32.117c.14-.02.277-.042.415-.06-.138.018-.276.038-.414.06M70.33 32.295h.008-.008M81.064 33.824c-2.283-1.265-4.798-1.88-7.3-1.892 2.737.025 5.465.79 7.872 2.273-.18-.14-.368-.268-.572-.38M54.915 47.678h-.007.007M57.817 47.328c-.245.007-.49.016-.737.035.246-.018.492-.03.737-.035" fill="#C1BCB5"/><path d="M58.34 47.316c1.795.017 3.584.353 5.285.996l.017-.017c-1.714-.646-3.51-.97-5.302-.98M56.303 47.44l-.415.06.415-.06M84.428 36.394c-.32-.32-.657-.615-.998-.9l1.94 1.938c-.3-.356-.61-.705-.942-1.038M73.672 40.902c.118 0 .235.01.353.017-.118-.008-.235-.018-.353-.018M61.334 63.75l.06.015-.06-.016M74.44 40.96c.313.04.624.1.928.187-.306-.086-.614-.15-.927-.188M70.33 32.295c-2.755.604-5.377 1.962-7.516 4.1l-5.992 5.99c-.055.056-.095.118-.143.177l6.17-6.173c2.097-2.097 4.71-3.478 7.48-4.095M72.712 40.972l.136-.02-.136.02M70.338 32.293c.322-.07.647-.125.972-.176-.325.05-.65.106-.972.176M55.127 70.707c.18.138.368.268.572.38.648.36 1.318.658 1.998.914l.018-.016c-.894-.34-1.76-.765-2.59-1.277M63.916 63.96c-.273.035-.548.05-.825.05.277.003.552-.017.826-.05M71.725 32.057c.258-.033.518-.058.778-.078-.26.018-.52.046-.778.077M73.24 31.944c.174-.005.348-.012.523-.01-.175-.003-.348.006-.523.01M62.738 63.993c-.14-.008-.277-.024-.415-.04.138.018.276.03.415.04M64.365 63.893l.007-.024c-.107.02-.212.053-.32.07.104-.016.21-.027.313-.047M47.316 79.378c-.14-.008-.278-.024-.416-.04.138.017.277.03.416.04M51.013 88l-.01.003.01-.002M50.208 49.588l.012-.02c-1.005.616-1.96 1.342-2.828 2.21L41.4 57.772c-.055.056-.096.118-.144.176l6.172-6.172c.85-.85 1.786-1.574 2.78-2.186M48.493 79.344c-.273.035-.55.05-.825.05.276.003.55-.017.825-.05M57.425 56.337l-.136.02.135-.02M50.03 88.18c-.137.02-.276.042-.415.06l.416-.06M45.91 79.133c.022.007.043.01.064.017-.02-.006-.042-.01-.063-.017M58.25 56.286c.117 0 .235.01.352.017-.117-.006-.234-.017-.352-.017M59.946 56.53c-.306-.085-.615-.148-.928-.186.313.04.623.1.928.187M40.277 86.472c2.283 1.266 4.798 1.88 7.302 1.893-2.74-.026-5.467-.79-7.875-2.274.18.14.368.27.572.382M48.84 88.318c-.248.018-.494.03-.74.035.246-.008.492-.016.74-.035M57.08 47.363c-.26.02-.518.046-.777.08.26-.035.518-.06.778-.08M55.887 47.5c-.325.05-.65.107-.972.178.32-.072.647-.126.972-.177M66.426 72.62c-.322.07-.648.124-.974.175.327-.05.65-.105.974-.176M57.817 47.328c.174-.005.35-.012.523-.01-.174-.003-.348.006-.523.01" fill="#C1BCB5"/><path d="M54.908 47.68c-1.636.358-3.22.99-4.688 1.888l-.012.02c1.46-.898 3.05-1.542 4.7-1.91M65.038 72.855c-.258.033-.518.06-.778.078.26-.02.52-.046.778-.078M63.522 72.97c-.174.003-.347.01-.52.01.173 0 .346-.008.52-.01M57.698 72.002c1.715.646 3.51.97 5.303.978-1.794-.017-3.584-.353-5.284-.997l-.018.02zM66.433 72.617l-.007.002.007-.003M64.26 72.933c-.245.02-.492.03-.738.035.246-.007.493-.016.738-.035M65.453 72.795c-.14.02-.276.042-.415.06.14-.018.276-.038.415-.06" fill="#C1BCB5"/><g><path d="M43.267 65.07l5.438 18.276 3.625-14.62 29-29.242L43.267 65.07z" fill="#E5E5E5"/><g transform="translate(27 35)"><mask id="b" fill="#fff"><use xlink:href="#a"/></mask><path d="M57.148 1.557C55.942.26 53.58.943 51.705 1.58L1.767 22.76C-.61 23.79-.5 26.874 1.564 27.504l14.703 2.568 9.062 3.656 17.218 17.362c1.077 1.02 3.824 1.713 4.53-.913L57.56 7.14c.313-1.714.85-4.227-.41-5.583" fill="#FFF" mask="url(#b)"/></g><path d="M43.267 65.07l5.438 18.276 3.625-14.62 29-29.242L43.267 65.07z" fill="#136A81"/><path d="M48.705 83.346l9.062-9.138-5.437-5.482-3.625 14.62z" fill="#41A9C4"/></g></g></svg>