<svg width="120" height="120" viewBox="0 0 120 120" xmlns="http://www.w3.org/2000/svg" xmlns:xlink="http://www.w3.org/1999/xlink"><title>Page 1</title><defs><path id="a" d="M0 .138h119.86V120H0"/></defs><g fill="none" fill-rule="evenodd"><path d="M82.99 80.87H37.383c-1.378 0-2.494-1.115-2.494-2.493v.636c0 1.375 1.116 2.493 2.494 2.493h45.61c1.373 0 2.492-1.118 2.492-2.493v-.636c0 1.378-1.12 2.494-2.493 2.494" fill="#F4A622"/><path d="M68.512 67.15l7.192 6.094.162-.05-3.113-4.347-4.103-1.812-.138.115zM58.624 48.994l-.178.118-.956-.852-.217-.47 1.35 1.204z" fill="#EE5E48"/><path d="M58.624 48.994l-.178.118-.008 24.38.186.294V48.994zM57.272 47.79v.47h.217l-.218-.47z" fill="#EE5E48"/><g><mask id="b" fill="#fff"><use xlink:href="#a"/></mask><path d="M59.93.138C26.83.138 0 26.972 0 60.068 0 93.17 26.83 120 59.93 120c33.097 0 59.93-26.832 59.93-59.93S93.027.137 59.93.137" fill="#72C7E5" mask="url(#b)"/></g><path d="M85.803 83.068c0 1.41-1.138 2.55-2.55 2.55H36.607c-1.41 0-2.552-1.14-2.552-2.55V36.422c0-1.41 1.143-2.55 2.552-2.55h46.646c1.412 0 2.55 1.14 2.55 2.55v46.646z" fill="#F4A622"/><path d="M85.803 83.068c0 1.41-1.138 2.55-2.55 2.55H36.607c-1.41 0-2.552-1.14-2.552-2.55V36.422c0-1.41 1.143-2.55 2.552-2.55h46.646c1.412 0 2.55 1.14 2.55 2.55v46.646z" fill="#41A9C4"/><path d="M86.148 82.796c0 1.41-1.138 2.55-2.55 2.55H36.952c-1.41 0-2.552-1.14-2.552-2.55V36.15c0-1.41 1.142-2.55 2.552-2.55h46.646c1.412 0 2.55 1.14 2.55 2.55v46.646z" fill="#298DA7"/><path d="M83.287 64.12V39.316c0-1.274-1.033-2.302-2.303-2.302H38.877c-1.27 0-2.304 1.028-2.304 2.302V64.12h46.714z" fill="#FFFEFC"/><path d="M83.253 33.872H36.607c-1.41 0-2.55 1.14-2.55 2.55v46.646c0 1.41 1.14 2.55 2.55 2.55h.32c-1.398 0-2.53-1.132-2.53-2.53V36.746c0-1.402 1.132-2.534 2.53-2.534h46.344c1.4 0 2.534 1.132 2.534 2.534v-.324c0-1.41-1.14-2.55-2.55-2.55" fill="#4990E2"/><path d="M36.607 85.62h46.647c1.41 0 2.55-1.142 2.55-2.552V36.423c0-1.41-1.14-2.55-2.55-2.55h-.323c1.4 0 2.536 1.133 2.536 2.532v46.342c0 1.4-1.136 2.534-2.535 2.534H36.59c-1.4 0-2.534-1.133-2.534-2.533v.32c0 1.41 1.142 2.552 2.55 2.552" fill="#41A9C4"/><path d="M85.803 48.136H34.055v26.622h51.748V48.136z" fill="#E5E5E5"/><path d="M85.803 81.25c0 1.407-1.138 2.55-2.55 2.55H36.607c-1.41 0-2.552-1.143-2.552-2.55V55.143c0-1.407 1.143-2.548 2.552-2.548h46.646c1.412 0 2.55 1.14 2.55 2.548V81.25z" fill="#41A9C4"/><path d="M85.803 82.22c0 1.41-1.138 2.55-2.55 2.55H36.607c-1.41 0-2.552-1.14-2.552-2.55v-26.1c0-1.412 1.143-2.553 2.552-2.553h46.646c1.412 0 2.55 1.14 2.55 2.552v26.1z" fill="#41A9C4"/><path d="M83.253 53.24H36.607c-1.41 0-2.55 1.14-2.55 2.55v.33c0-1.412 1.14-2.553 2.55-2.553h46.646c1.412 0 2.55 1.14 2.55 2.552v-.33c0-1.41-1.138-2.55-2.55-2.55" fill="#41A9C4"/><path d="M59.87 52.133l1.202 1.225.132.396 14.715-.434-.972-1.177-15.078-.01z" fill="#F9C53E"/><path d="M75.93 77.786L68.568 71.5l-7.363 6.286V53.32H75.93v24.466z" fill="#F9C53E"/><g fill="#E2DFDC"><path d="M79.95 41.28c0 .12-.1.218-.22.218H40.676c-.12 0-.216-.1-.216-.217 0-.12.096-.22.215-.22H79.73c.12 0 .22.1.22.22M79.95 44.418c0 .122-.1.218-.22.218H40.676c-.12 0-.216-.096-.216-.218 0-.12.096-.218.215-.218H79.73c.12 0 .22.097.22.218M79.95 47.557c0 .12-.1.217-.22.217H40.676c-.12 0-.216-.097-.216-.217s.096-.22.215-.22H79.73c.12 0 .22.1.22.22M79.95 50.695c0 .12-.1.22-.22.22H40.676c-.12 0-.216-.1-.216-.22s.096-.22.215-.22H79.73c.12 0 .22.1.22.22"/></g></g></svg>