<?xml version="1.0" encoding="UTF-8" standalone="no"?>
<svg width="74px" height="64px" viewBox="0 0 74 64" version="1.1" xmlns="http://www.w3.org/2000/svg" xmlns:xlink="http://www.w3.org/1999/xlink" xmlns:sketch="http://www.bohemiancoding.com/sketch/ns">
    <!-- Generator: Sketch 3.4.1 (15681) - http://www.bohemiancoding.com/sketch -->
    <title>download + Imported Layers Copy 3</title>
    <desc>Created with Sketch.</desc>
    <defs></defs>
    <g id="Page-1" stroke="none" stroke-width="1" fill="none" fill-rule="evenodd" sketch:type="MSPage">
        <g id="Artboard-24-Copy" sketch:type="MSArtboardGroup" transform="translate(-316.000000, -560.000000)">
            <g id="Group-Copy-4" sketch:type="MSLayerGroup" transform="translate(316.000000, 556.000000)">
                <g id="download-+-Imported-Layers-Copy-3" transform="translate(0.000000, 3.000000)" sketch:type="MSShapeGroup">
                    <path d="M8.1339723,64 L8.1339723,52.337662 L6.82261496,52.337662 L6.82261496,56.8312465 C6.14070914,55.904554 5.10910803,55.3450416 3.97259834,55.3450416 C1.75203324,55.3450416 0.213373961,57.093518 0.213373961,59.7861717 C0.213373961,62.5312798 1.76951801,64.2098172 3.97259834,64.2098172 C5.16156233,64.2098172 6.19316343,63.5978504 6.82261496,62.741097 L6.82261496,64 L8.1339723,64 Z M4.2873241,63.038338 C2.59130194,63.038338 1.5771856,61.6570416 1.5771856,59.7861717 C1.5771856,57.9153019 2.59130194,56.5165208 4.2873241,56.5165208 C5.33640997,56.5165208 6.35052632,57.1459723 6.82261496,57.8803324 L6.82261496,61.7094958 C6.35052632,62.443856 5.33640997,63.038338 4.2873241,63.038338 L4.2873241,63.038338 Z M14.4459723,64.2098172 C17.0162327,64.2098172 18.624831,62.216554 18.624831,59.768687 C18.624831,57.3208199 17.0162327,55.3450416 14.4459723,55.3450416 C11.8757119,55.3450416 10.2671136,57.3208199 10.2671136,59.768687 C10.2671136,62.216554 11.8757119,64.2098172 14.4459723,64.2098172 L14.4459723,64.2098172 Z M14.4459723,63.038338 C12.6450416,63.038338 11.6309252,61.4996787 11.6309252,59.768687 C11.6309252,58.0551801 12.6450416,56.5165208 14.4459723,56.5165208 C16.246903,56.5165208 17.2435346,58.0551801 17.2435346,59.768687 C17.2435346,61.4996787 16.246903,63.038338 14.4459723,63.038338 L14.4459723,63.038338 Z M29.3779612,64 L32.070615,55.5548587 L30.7068033,55.5548587 L28.6436011,62.2864931 L26.423036,55.5548587 L25.3040111,55.5548587 L23.083446,62.2864931 L21.0202438,55.5548587 L19.6564321,55.5548587 L22.3490859,64 L23.6604432,64 L25.8635235,57.2159114 L28.0666039,64 L29.3779612,64 Z M40.6031801,64 L40.6031801,58.0726648 C40.6031801,56.2367645 39.6764875,55.3450416 37.9105263,55.3450416 C36.6516233,55.3450416 35.4976288,56.0794017 34.9031468,56.7787922 L34.9031468,55.5548587 L33.5917895,55.5548587 L33.5917895,64 L34.9031468,64 L34.9031468,57.8278781 C35.3927202,57.1459723 36.371867,56.5165208 37.4034681,56.5165208 C38.5399778,56.5165208 39.2918227,56.9886094 39.2918227,58.4748144 L39.2918227,64 L40.6031801,64 Z M44.5372521,64 L44.5372521,52.337662 L43.2258947,52.337662 L43.2258947,64 L44.5372521,64 Z M50.8492521,64.2098172 C53.4195125,64.2098172 55.0281108,62.216554 55.0281108,59.768687 C55.0281108,57.3208199 53.4195125,55.3450416 50.8492521,55.3450416 C48.2789917,55.3450416 46.6703934,57.3208199 46.6703934,59.768687 C46.6703934,62.216554 48.2789917,64.2098172 50.8492521,64.2098172 L50.8492521,64.2098172 Z M50.8492521,63.038338 C49.0483213,63.038338 48.034205,61.4996787 48.034205,59.768687 C48.034205,58.0551801 49.0483213,56.5165208 50.8492521,56.5165208 C52.6501828,56.5165208 53.6468144,58.0551801 53.6468144,59.768687 C53.6468144,61.4996787 52.6501828,63.038338 50.8492521,63.038338 L50.8492521,63.038338 Z M63.7530083,64 L63.7530083,58.1950582 C63.7530083,56.1493407 62.2668033,55.3450416 60.4833573,55.3450416 C59.1020609,55.3450416 58.0180055,55.7996454 57.1087978,56.7438227 L57.7207645,57.6530305 C58.4726094,56.8487313 59.2943934,56.4815512 60.3085097,56.4815512 C61.5324432,56.4815512 62.441651,57.1284875 62.441651,58.2649972 L62.441651,59.7861717 C61.7597452,58.9993573 60.7980831,58.6321773 59.6440886,58.6321773 C58.210338,58.6321773 56.6891634,59.5239003 56.6891634,61.4122548 C56.6891634,63.2481551 58.210338,64.2098172 59.6440886,64.2098172 C60.7805983,64.2098172 61.7422604,63.8076676 62.441651,63.038338 L62.441651,64 L63.7530083,64 Z M60.1161773,63.2656399 C58.8922438,63.2656399 58.0354903,62.4963102 58.0354903,61.4297396 C58.0354903,60.3456842 58.8922438,59.5763546 60.1161773,59.5763546 C61.0428698,59.5763546 61.9345928,59.9260499 62.441651,60.6254404 L62.441651,62.216554 C61.9345928,62.9159446 61.0428698,63.2656399 60.1161773,63.2656399 L60.1161773,63.2656399 Z M73.8067479,64 L73.8067479,52.337662 L72.4953906,52.337662 L72.4953906,56.8312465 C71.8134848,55.904554 70.7818837,55.3450416 69.645374,55.3450416 C67.4248089,55.3450416 65.8861496,57.093518 65.8861496,59.7861717 C65.8861496,62.5312798 67.4422936,64.2098172 69.645374,64.2098172 C70.834338,64.2098172 71.8659391,63.5978504 72.4953906,62.741097 L72.4953906,64 L73.8067479,64 Z M69.9600997,63.038338 C68.2640776,63.038338 67.2499612,61.6570416 67.2499612,59.7861717 C67.2499612,57.9153019 68.2640776,56.5165208 69.9600997,56.5165208 C71.0091856,56.5165208 72.0233019,57.1459723 72.4953906,57.8803324 L72.4953906,61.7094958 C72.0233019,62.443856 71.0091856,63.038338 69.9600997,63.038338 L69.9600997,63.038338 Z" id="download" fill="#2A170A"></path>
                    <g id="Imported-Layers-Copy-3" transform="translate(16.370268, 0.000000)" fill="#BD94BD">
                        <path d="M39.8264081,39 L0,39 L0,28 L2.91412742,28 L2.91412742,36 L36.9122807,36 L36.9122807,28 L39.8264081,28 L39.8264081,39" id="Fill-1"></path>
                        <g id="Fill-2-+-Fill-3" transform="translate(19.913204, 15.000000) rotate(-180.000000) translate(-19.913204, -15.000000) translate(7.771006, 1.000000)">
                            <path d="M12.1421976,27.5 C11.3369271,27.5 10.6851339,26.828 10.6851339,26 L10.6851339,3 C10.6851339,2.172 11.3369271,1.5 12.1421976,1.5 C12.9474681,1.5 13.5992613,2.172 13.5992613,3 L13.5992613,26 C13.5992613,26.828 12.9474681,27.5 12.1421976,27.5" id="Fill-2"></path>
                            <path d="M22.4931782,15.202 C22.1211413,15.202 21.748133,15.056 21.4635199,14.763 L12.1111136,5.135 L2.75967867,14.763 C2.19045245,15.349 1.26861681,15.349 0.699390582,14.763 C0.130164358,14.177 0.130164358,13.228 0.699390582,12.642 L12.1111136,0.893 L23.5238079,12.642 C24.0930342,13.228 24.0930342,14.177 23.5238079,14.763 C23.2391948,15.056 22.8661865,15.202 22.4931782,15.202" id="Fill-3"></path>
                        </g>
                    </g>
                </g>
            </g>
        </g>
    </g>
</svg>