<svg width="121" height="121" viewBox="0 0 121 121" xmlns="http://www.w3.org/2000/svg" xmlns:xlink="http://www.w3.org/1999/xlink"><title>Page 1</title><defs><path id="a" d="M0 .14h120.86V121H0"/><path id="c" d="M17 0h120.86v120.86H17V0z"/></defs><g fill="none" fill-rule="evenodd"><mask id="b" fill="#fff"><use xlink:href="#a"/></mask><path d="M60.43.14C27.056.14 0 27.192 0 60.57 0 93.94 27.056 121 60.43 121c33.375 0 60.43-27.058 60.43-60.43C120.86 27.192 93.806.14 60.43.14" fill="#72C7E5" mask="url(#b)"/><path d="M38.866 87.585c-2.882 0-5.24-2.357-5.24-5.238V51.59c0-2.88 2.358-5.24 5.24-5.24H82.01c2.882 0 5.24 2.36 5.24 5.24v30.757c0 2.88-2.358 5.238-5.24 5.238H38.867z" fill="#FFFEFC"/><path d="M76.938 52.308h.45v33.246h-.45V52.308zM60.433 52.308h.45v33.246h-.45V52.308zM43.93 52.308h.447v33.246h-.448V52.308z" fill="#E2DFDC"/><path d="M35.676 79.974H85.2v.448H35.677v-.448zM35.676 68.887H85.2v.448H35.677v-.448z" fill="#E2DFDC"/><mask id="d" fill="#fff"><use xlink:href="#c"/></mask><path d="M35.676 79.793H85.2v.45H35.677v-.45zM35.676 68.705H85.2v.45H35.677v-.45zM35.676 57.617H85.2v.45H35.677v-.45z" fill="#E2DFDC" mask="url(#d)"/><path d="M76.718 52.308h.448v33.246h-.448V52.308zM60.212 52.308h.45v33.246h-.45V52.308zM43.71 52.308h.448v33.246h-.45V52.308z" fill="#E2DFDC" mask="url(#d)"/><path d="M81.706 42.633c0 .264-.215.48-.476.48h-4.41c-.266 0-.48-.216-.48-.48v-2.807c0-.262.214-.477.48-.477h4.41c.26 0 .476.214.476.476v2.807zm-9.047 0c0 .264-.217.48-.482.48h-4.41c-.262 0-.477-.216-.477-.48v-2.807c0-.262.216-.477.48-.477h4.408c.265 0 .48.214.48.476v2.807zm-9.053 0c0 .264-.216.48-.48.48H58.72c-.266 0-.48-.216-.48-.48v-2.807c0-.262.214-.477.48-.477h4.408c.263 0 .48.214.48.476v2.807zm-18.1 0c0 .264-.216.48-.48.48h-4.41c-.262 0-.477-.216-.477-.48v-2.807c0-.262.215-.477.476-.477h4.41c.265 0 .48.214.48.476v2.807zm9.05 0c0 .264-.215.48-.48.48h-4.41c-.26 0-.477-.216-.477-.48v-2.807c0-.262.216-.477.478-.477h4.41c.264 0 .478.214.478.476v2.807zm26.47-4.65H39.863c-6.846 0-6.237 7.882-6.237 7.882v5.725H87.25v-8.215s-.207-5.392-6.223-5.392z" fill="#298DA7" mask="url(#d)"/><path d="M45.027 40.525c0 1.214-.982 2.194-2.196 2.194-1.21 0-2.193-.98-2.193-2.195v-3.982c0-1.21.984-2.194 2.194-2.194 1.215 0 2.197.983 2.197 2.193v3.982zM54.078 40.525c0 1.214-.984 2.194-2.196 2.194-1.213 0-2.194-.98-2.194-2.195v-3.982c0-1.21.98-2.194 2.194-2.194 1.212 0 2.196.983 2.196 2.193v3.982zM63.128 40.525c0 1.214-.982 2.194-2.195 2.194-1.214 0-2.195-.98-2.195-2.195v-3.982c0-1.21.98-2.194 2.195-2.194 1.213 0 2.195.983 2.195 2.193v3.982zM72.178 40.525c0 1.214-.982 2.194-2.193 2.194-1.215 0-2.198-.98-2.198-2.195v-3.982c0-1.21.983-2.194 2.198-2.194 1.21 0 2.193.983 2.193 2.193v3.982zM81.23 40.525c0 1.214-.984 2.194-2.194 2.194-1.215 0-2.197-.98-2.197-2.195v-3.982c0-1.21.98-2.194 2.196-2.194 1.21 0 2.194.983 2.194 2.193v3.982z" fill="#F5F5F5" mask="url(#d)"/></g></svg>