<svg width="67" height="73" viewBox="0 0 67 73" xmlns="http://www.w3.org/2000/svg"><title>reading copy 3</title><g fill="none" fill-rule="evenodd"><path d="M11 10.718h54.087V71.34H11V10.72z" stroke="#BD94BD" stroke-width="3"/><path d="M28.456 22.52c-.594-.498-1.488-.424-1.986.162l-.14.167-2.415-2.032C28 15.33 27.162 7.56 21.845 3.09 16.303-1.57 8.013-.88 3.328 4.628c-4.687 5.508-3.993 13.75 1.547 18.41 5.317 4.474 13.16 4.006 17.926-.91l2.414 2.032-.14.165c-.5.587-.426 1.475.165 1.973l4.76 4 3.213-3.78-4.757-4m-7.14-2.766c-3.72 4.368-10.292 4.916-14.684 1.218C2.24 17.276 1.69 10.74 5.406 6.376c3.717-4.37 10.287-4.918 14.682-1.222 4.392 3.698 4.942 10.23 1.227 14.598zm14.338 8.752l-1.54-1.296-3.215 3.78 1.54 1.295c.59.495 1.482.422 1.982-.166l1.396-1.64c.5-.59.426-1.476-.164-1.973z" fill="#2A170A"/></g></svg>