<svg width="120" height="120" viewBox="0 0 120 120" xmlns="http://www.w3.org/2000/svg" xmlns:xlink="http://www.w3.org/1999/xlink"><title>Page 1</title><defs><path id="a" d="M0 .137h119.862V120H0"/><path id="c" d="M9.826.41L.11 10.13l9.502 9.495 9.712-9.716c.393-.39.393-1.032 0-1.425L11.252.41c-.196-.195-.455-.293-.713-.293-.26 0-.518.098-.714.294"/></defs><g fill="none" fill-rule="evenodd"><g><mask id="b" fill="#fff"><use xlink:href="#a"/></mask><path d="M59.93.137C26.833.137 0 26.97 0 60.07 0 93.165 26.832 120 59.93 120c33.1 0 59.932-26.835 59.932-59.93 0-33.1-26.832-59.933-59.93-59.933" fill="#72C7E5" mask="url(#b)"/></g><path d="M42.262 78.752l-.34-.338.34.338zm-1.83-1.83l-.08-.08.587.587-.51-.51zm-1.478-1.477l-.364-.365.364.364z" fill="#ECEAE8"/><g transform="translate(67.105 33.158)"><mask id="d" fill="#fff"><use xlink:href="#c"/></mask><path d="M9.826.41L.11 10.13l9.502 9.495 9.712-9.716c.393-.39.393-1.032 0-1.425L11.252.41c-.196-.195-.455-.293-.713-.293-.26 0-.518.098-.714.294" mask="url(#d)"/></g><g><path d="M67.216 43.287l9.714-9.717c.393-.393 1.035-.393 1.426 0l8.073 8.074c.393.39.393 1.033 0 1.423l-9.713 9.715-9.5-9.495z" fill="#F4804D"/><path d="M68.905 42.956c-.396-.39-1.038-.39-1.43 0L36.97 73.46l2.92 2.916L71.104 45.16l-2.2-2.204zM75.003 49.053L43.783 80.27l2.755 2.757 30.507-30.502c.392-.395.392-1.037 0-1.43l-2.042-2.042z" fill="#F9C53E"/><path d="M71.105 45.16L39.89 76.376l3.893 3.894 31.22-31.217-3.898-3.894z" fill="#F9C53E"/><path d="M46.538 83.027l-12.704 3.786c-.53.173-.82-.12-.645-.647l3.78-12.706 9.568 9.567z" fill="#FFF"/><path d="M34.37 82.2l-1.18 3.966c-.176.528.114.82.644.647l3.963-1.183-3.428-3.43z" fill="#228EAA"/></g></g></svg>