<?xml version="1.0" encoding="utf-8"?>
<!-- Generator: Adobe Illustrator 18.1.1, SVG Export Plug-In . SVG Version: 6.00 Build 0)  -->
<svg version="1.1" id="Layer_1" xmlns="http://www.w3.org/2000/svg" xmlns:xlink="http://www.w3.org/1999/xlink" x="0px" y="0px"
	 viewBox="-245 337 120 120" enable-background="new -245 337 120 120" xml:space="preserve">
<title>Page 1</title>
<g>
	<path fill="#F4A622" d="M-162,417.9h-45.6c-1.4,0-2.5-1.1-2.5-2.5v0.6c0,1.4,1.1,2.5,2.5,2.5h45.6c1.4,0,2.5-1.1,2.5-2.5v-0.6
		C-159.5,416.8-160.6,417.9-162,417.9"/>
	<path fill="#EE5E48" d="M-176.5,404.1l7.2,6.1l0.2-0.1l-3.1-4.3l-4.1-1.8C-176.3,404-176.5,404.1-176.5,404.1z M-186.4,386
		l-0.2,0.1l-1-0.9l-0.2-0.5L-186.4,386L-186.4,386z"/>
	<path fill="#EE5E48" d="M-186.4,386l-0.2,0.1l0,24.4l0.2,0.3V386z M-187.7,384.8v0.5h0.2L-187.7,384.8L-187.7,384.8z"/>
	<g>
		<defs>
			<filter id="Adobe_OpacityMaskFilter" filterUnits="userSpaceOnUse" x="-245" y="337.1" width="119.9" height="119.9">
				<feColorMatrix  type="matrix" values="1 0 0 0 0  0 1 0 0 0  0 0 1 0 0  0 0 0 1 0"/>
			</filter>
		</defs>
		<mask maskUnits="userSpaceOnUse" x="-245" y="337.1" width="119.9" height="119.9" id="b">
			<g filter="url(#Adobe_OpacityMaskFilter)">
				<path id="a" fill="#FFFFFF" d="M-245,337.1h119.9V457H-245"/>
			</g>
		</mask>
		<path mask="url(#b)" fill="#E72400" d="M-185.1,337.1c-33.1,0-59.9,26.8-59.9,59.9c0,33.1,26.8,59.9,59.9,59.9
			c33.1,0,59.9-26.8,59.9-59.9S-152,337.1-185.1,337.1"/>
	</g>
	<path fill="#F4A622" d="M-159.2,420.1c0,1.4-1.1,2.6-2.6,2.6h-46.6c-1.4,0-2.6-1.1-2.6-2.6v-46.6c0-1.4,1.1-2.5,2.6-2.5h46.6
		c1.4,0,2.6,1.1,2.6,2.5C-159.2,373.4-159.2,420.1-159.2,420.1z"/>
	<path fill="#41A9C4" d="M-159.2,420.1c0,1.4-1.1,2.6-2.6,2.6h-46.6c-1.4,0-2.6-1.1-2.6-2.6v-46.6c0-1.4,1.1-2.5,2.6-2.5h46.6
		c1.4,0,2.6,1.1,2.6,2.5C-159.2,373.4-159.2,420.1-159.2,420.1z"/>
	<path fill="#606063" d="M-158.9,419.8c0,1.4-1.1,2.6-2.6,2.6H-208c-1.4,0-2.6-1.1-2.6-2.6v-46.6c0-1.4,1.1-2.5,2.6-2.5h46.6
		c1.4,0,2.6,1.1,2.6,2.5C-158.9,373.1-158.9,419.8-158.9,419.8z"/>
	<path fill="#FFFEFC" d="M-161.7,401.1v-24.8c0-1.3-1-2.3-2.3-2.3h-42.1c-1.3,0-2.3,1-2.3,2.3v24.8H-161.7z"/>
	<path fill="#525254" d="M-161.7,370.9h-46.6c-1.4,0-2.5,1.1-2.5,2.5v46.6c0,1.4,1.1,2.6,2.5,2.6h0.3c-1.4,0-2.5-1.1-2.5-2.5v-46.3
		c0-1.4,1.1-2.5,2.5-2.5h46.3c1.4,0,2.5,1.1,2.5,2.5v-0.3C-159.2,372-160.3,370.9-161.7,370.9"/>
	<path fill="#7E7D82" d="M-208.4,422.6h46.6c1.4,0,2.6-1.1,2.6-2.6v-46.6c0-1.4-1.1-2.6-2.6-2.6h-0.3c1.4,0,2.5,1.1,2.5,2.5v46.3
		c0,1.4-1.1,2.5-2.5,2.5h-46.3c-1.4,0-2.5-1.1-2.5-2.5v0.3C-210.9,421.5-209.8,422.6-208.4,422.6"/>
	<path fill="#E5E5E5" d="M-159.2,388.1h-51.7v26.6h51.7V388.1z"/>
	<path fill="#606063" d="M-159.2,418.2c0,1.4-1.1,2.5-2.6,2.5h-46.6c-1.4,0-2.6-1.1-2.6-2.5v-26.1c0-1.4,1.1-2.5,2.6-2.5h46.6
		c1.4,0,2.6,1.1,2.6,2.5C-159.2,392.1-159.2,418.2-159.2,418.2z"/>
	<path fill="#7E7D82" d="M-159.2,419.2c0,1.4-1.1,2.6-2.6,2.6h-46.6c-1.4,0-2.6-1.1-2.6-2.6v-26.1c0-1.4,1.1-2.6,2.6-2.6h46.6
		c1.4,0,2.6,1.1,2.6,2.6V419.2L-159.2,419.2z"/>
	<path fill="#7E7D82" d="M-161.7,390.2h-46.6c-1.4,0-2.5,1.1-2.5,2.6v0.3c0-1.4,1.1-2.6,2.5-2.6h46.6c1.4,0,2.6,1.1,2.6,2.6v-0.3
		C-159.2,391.4-160.3,390.2-161.7,390.2"/>
	<path fill="#F9C53E" d="M-185.1,389.1l1.2,1.2l0.1,0.4l14.7-0.4l-1-1.2L-185.1,389.1L-185.1,389.1z"/>
	<path fill="#F9C53E" d="M-169.1,414.8l-7.4-6.3l-7.4,6.3v-24.5h14.7C-169.1,390.3-169.1,414.8-169.1,414.8z"/>
	<g>
		<path fill="#E2DFDC" d="M-165.1,378.3c0,0.1-0.1,0.2-0.2,0.2h-39.1c-0.1,0-0.2-0.1-0.2-0.2c0-0.1,0.1-0.2,0.2-0.2h39.1
			C-165.1,378.1-165,378.2-165.1,378.3 M-165.1,381.4c0,0.1-0.1,0.2-0.2,0.2h-39.1c-0.1,0-0.2-0.1-0.2-0.2c0-0.1,0.1-0.2,0.2-0.2
			h39.1C-165.1,381.2-165,381.3-165.1,381.4 M-165.1,384.6c0,0.1-0.1,0.2-0.2,0.2h-39.1c-0.1,0-0.2-0.1-0.2-0.2s0.1-0.2,0.2-0.2
			h39.1C-165.1,384.3-165,384.4-165.1,384.6 M-165.1,387.7c0,0.1-0.1,0.2-0.2,0.2h-39.1c-0.1,0-0.2-0.1-0.2-0.2s0.1-0.2,0.2-0.2
			h39.1C-165.1,387.5-165,387.6-165.1,387.7"/>
	</g>
</g>
</svg>
