<svg width="68" height="58" viewBox="0 0 68 58" xmlns="http://www.w3.org/2000/svg"><title>discussion</title><g stroke-width="3" fill="none" fill-rule="evenodd"><path d="M11.57 25.608h16.367c5.425 0 9.823 4.375 9.823 9.77v4.07c0 5.393-4.398 9.767-9.823 9.767h-9.63l-6.56 6.444c-1.255 1.235-2.284.806-2.284-.95v-5.722c-4.413-.96-7.72-4.864-7.72-9.54v-4.07c0-5.395 4.398-9.77 9.827-9.77" stroke="#BD94BD"/><path d="M50.886 1.7h-21.09C21.63 1.7 15.01 8.283 15.01 16.402v6.128c0 8.12 6.62 14.705 14.79 14.705h10.938l9.875 9.703c1.894 1.862 3.443 1.216 3.443-1.432v-8.61c6.646-1.445 11.62-7.326 11.62-14.365v-6.127c0-8.12-6.622-14.704-14.787-14.704" stroke="#1B1B18"/></g></svg>